<?xml version="1.0" standalone="no"?>
<!DOCTYPE svg PUBLIC "-//W3C//DTD SVG 20010904//EN"
 "http://www.w3.org/TR/2001/REC-SVG-20010904/DTD/svg10.dtd">
<svg version="1.0" xmlns="http://www.w3.org/2000/svg"
 width="512.000000pt" height="512.000000pt" viewBox="0 0 512.000000 512.000000"
 preserveAspectRatio="xMidYMid meet">

<g transform="translate(0.000000,512.000000) scale(0.100000,-0.100000)"
fill="#000000" stroke="none">
<path d="M3426 4709 c-62 -15 -153 -68 -197 -116 -22 -24 -55 -74 -72 -111
l-32 -67 -3 -205 -4 -206 -71 36 -71 35 -343 3 -343 3 -26 -26 -26 -26 4 -222
3 -222 32 -67 c44 -93 100 -151 191 -196 l76 -37 288 -3 288 -3 0 -165 0 -164
-187 125 c-129 86 -197 125 -216 125 -55 0 -94 -69 -68 -119 5 -9 113 -86 240
-171 l231 -153 0 -99 0 -98 -472 2 -473 3 -130 340 c-72 187 -139 354 -148
371 -25 47 -111 120 -164 138 -71 24 -177 21 -239 -8 -140 -65 -220 -221 -184
-356 9 -34 112 -312 175 -472 6 -15 -20 -17 -327 -21 -372 -4 -387 -6 -533
-77 -274 -133 -478 -433 -531 -780 -71 -476 151 -953 531 -1139 167 -83 -3
-76 1935 -76 1938 0 1768 -7 1935 76 275 134 478 433 531 779 71 476 -151 953
-531 1139 -153 76 -141 74 -707 78 l-508 4 0 199 0 199 288 3 288 3 76 37 c91
45 147 103 191 196 l32 67 3 222 4 222 -26 26 -26 26 -343 -3 -343 -3 -72 -36
-72 -35 0 117 0 118 288 3 287 3 67 32 c93 44 151 100 196 191 l37 76 3 223 4
222 -26 26 -25 25 -323 -1 c-178 -1 -340 -5 -362 -10z m574 -285 c0 -170 -9
-204 -75 -269 -67 -68 -97 -75 -296 -75 l-164 0 141 94 c78 52 144 102 148
111 20 53 -18 115 -71 115 -19 0 -87 -39 -216 -125 l-187 -125 0 101 c0 56 5
120 12 143 15 51 99 137 148 153 21 7 137 11 298 12 l262 1 0 -136z m-1046
-516 c55 -16 138 -99 154 -154 7 -23 12 -69 12 -103 l0 -61 -187 125 c-129 86
-197 125 -216 125 -53 0 -91 -62 -71 -115 4 -9 97 -77 208 -151 l201 -134
-224 0 c-146 0 -238 4 -265 12 -55 16 -138 99 -154 154 -7 24 -12 100 -12 178
l0 136 256 0 c172 0 270 -4 298 -12z m1046 -444 c0 -170 -9 -204 -75 -269 -67
-68 -97 -75 -296 -75 l-164 0 141 94 c78 52 144 102 148 111 20 53 -18 115
-71 115 -19 0 -87 -39 -216 -125 l-187 -125 0 101 c0 56 5 120 12 143 15 51
99 137 148 153 21 7 137 11 298 12 l262 1 0 -136z m-2298 -210 c66 -33 97
-136 63 -208 -25 -53 -78 -86 -138 -86 -149 0 -220 166 -115 267 53 51 123 60
190 27z m329 -758 c149 -391 153 -399 186 -413 42 -17 81 -2 102 41 12 26 10
37 -30 144 -24 64 -45 120 -47 124 -2 4 324 8 724 8 l727 0 -53 -42 c-120 -98
-248 -299 -305 -478 -73 -234 -71 -501 6 -740 53 -164 185 -365 299 -457 l53
-43 -1400 0 c-1364 0 -1402 1 -1477 20 -261 67 -468 301 -549 620 -30 121 -30
358 0 480 80 319 287 553 549 620 69 18 110 20 408 20 l331 0 89 -236 c78
-205 93 -237 117 -250 15 -8 35 -14 44 -14 22 0 75 54 75 77 0 10 -69 198
-154 418 l-153 400 71 5 c81 6 147 34 191 80 16 17 32 27 36 23 4 -5 76 -187
160 -407z m2273 -116 c262 -67 468 -300 549 -620 30 -122 30 -358 0 -480 -46
-182 -139 -347 -256 -456 -405 -376 -979 -145 -1130 456 -30 121 -30 358 0
480 112 446 472 714 837 620z"/>
<path d="M585 2055 c-16 -15 -25 -36 -25 -55 0 -19 9 -40 25 -55 l24 -25 351
0 351 0 24 25 c16 15 25 36 25 55 0 19 -9 40 -25 55 l-24 25 -351 0 -351 0
-24 -25z"/>
<path d="M2505 1975 c-16 -15 -25 -36 -25 -55 0 -19 9 -40 25 -55 l24 -25 231
0 231 0 24 25 c16 15 25 36 25 55 0 19 -9 40 -25 55 l-24 25 -231 0 -231 0
-24 -25z"/>
<path d="M585 1495 c-16 -15 -25 -36 -25 -55 0 -19 9 -40 25 -55 l24 -25 511
0 511 0 24 25 c16 15 25 36 25 55 0 19 -9 40 -25 55 l-24 25 -511 0 -511 0
-24 -25z"/>
<path d="M1865 1495 c-16 -15 -25 -36 -25 -55 0 -19 9 -40 25 -55 21 -22 33
-25 95 -25 62 0 74 3 95 25 16 15 25 36 25 55 0 19 -9 40 -25 55 -21 22 -33
25 -95 25 -62 0 -74 -3 -95 -25z"/>
<path d="M1625 1175 c-16 -15 -25 -36 -25 -55 0 -19 9 -40 25 -55 l24 -25 671
0 671 0 24 25 c33 32 33 78 0 110 l-24 25 -671 0 -671 0 -24 -25z"/>
<path d="M4039 2137 c-154 -53 -272 -195 -331 -402 -32 -115 -32 -315 0 -430
60 -210 183 -357 339 -405 82 -25 144 -25 226 0 154 48 279 198 339 407 32
113 32 314 0 428 -60 210 -183 357 -339 405 -84 26 -152 25 -234 -3z m236
-171 c73 -44 132 -126 171 -243 51 -152 41 -327 -26 -471 -144 -308 -435 -271
-547 68 -25 75 -28 99 -27 205 0 102 4 132 27 200 77 228 248 331 402 241z"/>
</g>
</svg>
